<svg width="1em" height="1em" viewBox="0 0 64 64" 
    xmlns="http://www.w3.org/2000/svg">
    <g transform="rotate(180 32 32)">
        <path d="m59.947 39.526c.023-.174.053-.346.053-.526 0-2.209-1.791-4-4-4-1.867 0-3.422 1.284-3.863 3.014-.046-.002-.09-.014-.137-.014-2.209 0-4 1.791-4 4s1.791 4 4 4c.986 0 1.878-.371 2.575-.963.698 1.171 1.963 1.963 3.425 1.963 2.209 0 4-1.791 4-4 0-1.498-.834-2.789-2.053-3.474z" fill="#d5cec2"/>
        <path d="m26.947 6.526c.023-.174.053-.346.053-.526 0-2.209-1.791-4-4-4-1.867 0-3.422 1.284-3.863 3.014-.046-.002-.09-.014-.137-.014-2.209 0-4 1.791-4 4s1.791 4 4 4c.986 0 1.878-.371 2.575-.963.698 1.171 1.963 1.963 3.425 1.963 2.209 0 4-1.791 4-4 0-1.498-.834-2.789-2.053-3.474z" fill="#d5cec2"/>
        <path d="m24.448 2.281c-.45-.176-.936-.281-1.448-.281-1.867 0-3.422 1.284-3.863 3.014-.046-.002-.09-.014-.137-.014-2.209 0-4 1.791-4 4 0 .627.157 1.213.414 1.741.117.005.232.018.35.018 4.729-.001 8.568-3.778 8.684-8.478z" fill="#e7e4dd"/>
        <path d="m57.448 35.281c-.45-.176-.936-.281-1.448-.281-1.867 0-3.422 1.284-3.863 3.014-.046-.002-.09-.014-.137-.014-2.209 0-4 1.791-4 4 0 .627.157 1.213.414 1.741.117.005.232.018.35.018 4.729-.001 8.568-3.778 8.684-8.478z" fill="#e7e4dd"/>
        <path d="m29.379 26.843h4.243v11.314h-4.243z" fill="#f5ba5b" transform="matrix(.707 -.707 .707 .707 -13.755 31.793)"/>
        <path d="m28.458 32.458c1.76-.104 3.464-.415 5.087-.913l-4.545-4.545-3 3z" fill="#f8cf6a"/>
        <path d="m42 32-2.293 2.293c-.453.453-1.067.707-1.707.707-.64 0-1.254-.254-1.707-.707l-6.586-6.586c-.453-.453-.707-1.067-.707-1.707 0-.64.254-1.254.707-1.707l2.293-2.293z" fill="#243242"/>
        <path d="m32 22-2.293 2.293c-.453.453-.707 1.067-.707 1.707s.254 1.254.707 1.707l3.839 3.839c1.947-.598 3.776-1.465 5.448-2.552z" fill="#4d5d7a"/>
        <path d="m62 22c0-11.046-8.954-20-20-20l-10 20 10 10z" fill="#c7e2fc"/>
        <path d="m48.891 10.773c0-2.836-.549-5.543-1.538-8.027-1.706-.473-3.496-.746-5.353-.746l-10 20 6.993 6.993c5.956-3.875 9.898-10.585 9.898-18.22z" fill="#ebf7fe"/>
        <path d="m32 36-25.293 25.293c-.453.453-1.067.707-1.707.707-.64 0-1.254-.254-1.707-.707l-.586-.586c-.453-.453-.707-1.067-.707-1.707 0-.64.254-1.254.707-1.707l25.293-25.293z" fill="#e2b88f"/>
        <path d="m42 33c-.259 0-.515-.101-.707-.293l-10-10c-.305-.304-.38-.769-.188-1.154l10-20c.17-.339.516-.553.895-.553 11.579 0 21 9.42 21 21 0 .379-.214.725-.553.895l-20 10c-.142.07-.295.105-.447.105zm-8.783-11.197 8.98 8.98 18.793-9.396c-.318-9.99-8.387-18.059-18.377-18.377z"/>
        <path d="m38 36c-.911 0-1.769-.355-2.414-1l-6.586-6.586c-.645-.644-1-1.501-1-2.414s.355-1.77 1-2.415l2.293-2.292 1.414 1.414-2.293 2.293c-.268.267-.414.622-.414 1s.146.733.414 1l6.586 6.586c.535.534 1.465.535 2 0l2.293-2.292 1.414 1.414-2.293 2.292c-.645.645-1.503 1-2.414 1z"/>
        <path d="m34 39c-.256 0-.512-.098-.707-.293l-8-8c-.391-.391-.391-1.023 0-1.414l3-3 1.414 1.414-2.293 2.293 6.586 6.586 2.293-2.293 1.414 1.414-3 3c-.195.195-.451.293-.707.293z"/>
        <path d="m5 63c-.911 0-1.769-.355-2.414-1l-.586-.586c-.645-.644-1-1.501-1-2.414s.355-1.77 1-2.415l25.293-25.292 1.414 1.414-25.293 25.293c-.268.267-.414.622-.414 1s.146.733.414 1l.586.586c.535.534 1.465.535 2 0l25.293-25.292 1.414 1.414-25.293 25.292c-.645.645-1.503 1-2.414 1z"/>
        <path d="m41.515 13h16.971v2h-16.971z" transform="matrix(.707 -.707 .707 .707 4.745 39.456)"/>
        <path d="m46.868 18h15.264v2h-15.264z" transform="matrix(.852 -.524 .524 .852 -1.869 31.4)"/>
        <path d="m37.368 8.5h15.264v2h-15.264z" transform="matrix(.524 -.852 .852 .524 13.328 42.849)"/>
        <path d="m58 48c-1.411 0-2.717-.584-3.651-1.602-.724.393-1.532.602-2.349.602-2.757 0-5-2.243-5-5 0-2.56 1.933-4.676 4.416-4.966.775-1.819 2.565-3.034 4.584-3.034 2.757 0 5 2.243 5 5v.021c1.248.939 2 2.41 2 3.979 0 2.757-2.243 5-5 5zm-3.425-3.962c.055 0 .109.004.164.014.29.048.544.221.694.474.552.923 1.511 1.474 2.567 1.474 1.654 0 3-1.346 3-3 0-1.07-.591-2.067-1.543-2.603-.355-.2-.554-.595-.502-1l.016-.116c.013-.092.029-.184.029-.281 0-1.654-1.346-3-3-3-1.364 0-2.555.93-2.895 2.261-.116.455-.532.766-1.001.752-.037-.001-.137-.011-.174-.017-1.584.004-2.93 1.35-2.93 3.004s1.346 3 3 3c.888 0 1.538-.394 1.928-.725.182-.154.412-.237.647-.237z"/>
        <path d="m25 15c-1.411 0-2.717-.584-3.651-1.602-.724.393-1.532.602-2.349.602-2.757 0-5-2.243-5-5 0-2.56 1.933-4.676 4.416-4.966.775-1.819 2.565-3.034 4.584-3.034 2.757 0 5 2.243 5 5v.021c1.248.939 2 2.41 2 3.979 0 2.757-2.243 5-5 5zm-3.425-3.962c.055 0 .109.004.164.014.29.048.544.221.694.474.552.923 1.511 1.474 2.567 1.474 1.654 0 3-1.346 3-3 0-1.07-.591-2.067-1.543-2.603-.355-.2-.554-.595-.502-1l.016-.116c.013-.092.029-.184.029-.281 0-1.654-1.346-3-3-3-1.364 0-2.555.93-2.895 2.261-.116.455-.548.772-1.001.752-.037-.001-.137-.011-.174-.017-1.584.004-2.93 1.35-2.93 3.004s1.346 3 3 3c.888 0 1.538-.394 1.928-.725.182-.154.412-.237.647-.237z"/>

    </g>
</svg>
