<svg height="1em" viewBox="0 0 512 512" width="1em" 
    xmlns="http://www.w3.org/2000/svg">
    <path d="m456 251h-400c-8.284 0-15-6.716-15-15v-180c0-8.284 6.716-15 15-15h152.791c4.557 0 8.866 2.071 11.713 5.63l35.496 44.37h200c8.284 0 15 6.716 15 15v130c0 8.284-6.716 15-15 15z" fill="#ffb454"/>
    <path d="m456 91h-200v160h200c8.284 0 15-6.716 15-15v-130c0-8.284-6.716-15-15-15z" fill="#ec8600"/>
    <path d="m396 251h-280c-8.284 0-15-6.716-15-15v-70c0-8.284 6.716-15 15-15h280c8.284 0 15 6.716 15 15v70c0 8.284-6.716 15-15 15z" fill="#e1f0ff"/>
    <path d="m396 151h-140v100h140c8.284 0 15-6.716 15-15v-70c0-8.284-6.716-15-15-15z" fill="#bedcf0"/>
    <path d="m457 471h-402c-7.249 0-13.461-5.185-14.758-12.316l-40-220c-.796-4.376.392-8.88 3.241-12.295 2.851-3.415 7.069-5.389 11.517-5.389h482c4.448 0 8.666 1.974 11.517 5.389 2.85 3.415 4.037 7.919 3.241 12.295l-40 220c-1.297 7.131-7.509 12.316-14.758 12.316z" fill="#ffe278"/>
    <path d="m497 221h-241v250h201c7.249 0 13.461-5.185 14.758-12.316l40-220c.796-4.376-.392-8.88-3.241-12.295-2.851-3.415-7.069-5.389-11.517-5.389z" fill="#ffb454"/>
</svg>